<svg width="25" height="24" viewBox="0 0 25 24" fill="none" xmlns="http://www.w3.org/2000/svg">
<path fill-rule="evenodd" clip-rule="evenodd" d="M9.79976 15.6173C9.60776 15.6173 9.41576 15.5443 9.26976 15.3973C8.53176 14.6603 8.12476 13.6803 8.12476 12.6383C8.12476 10.4783 9.88076 8.72125 12.0388 8.72125C13.0768 8.72125 14.0848 9.14025 14.8038 9.87125C15.0938 10.1673 15.0908 10.6413 14.7948 10.9313C14.4998 11.2233 14.0258 11.2183 13.7348 10.9243C13.2958 10.4773 12.6778 10.2213 12.0388 10.2213C10.7078 10.2213 9.62476 11.3053 9.62476 12.6383C9.62476 13.2793 9.87576 13.8833 10.3298 14.3373C10.6228 14.6303 10.6228 15.1043 10.3308 15.3973C10.1838 15.5443 9.99176 15.6173 9.79976 15.6173Z" fill="#130F26"/>
<path fill-rule="evenodd" clip-rule="evenodd" d="M12.6064 16.4912C12.2514 16.4912 11.9354 16.2372 11.8694 15.8752C11.7954 15.4682 12.0654 15.0772 12.4734 15.0032C13.4534 14.8252 14.2294 14.0472 14.4054 13.0662C14.4794 12.6592 14.8694 12.3912 15.2764 12.4612C15.6844 12.5342 15.9554 12.9242 15.8824 13.3322C15.5954 14.9252 14.3334 16.1892 12.7414 16.4792C12.6964 16.4872 12.6504 16.4912 12.6064 16.4912Z" fill="#130F26"/>
<mask id="mask0_247_2159" style="mask-type:luminance" maskUnits="userSpaceOnUse" x="2" y="4" width="17" height="15">
<path fill-rule="evenodd" clip-rule="evenodd" d="M2.03906 4.62451H18.1253V18.7226H2.03906V4.62451Z" fill="white"/>
</mask>
<g mask="url(#mask0_247_2159)">
<path fill-rule="evenodd" clip-rule="evenodd" d="M6.69356 18.7226C6.53156 18.7226 6.36856 18.6696 6.23056 18.5626C4.53956 17.2346 3.11056 15.2876 2.10056 12.9336C2.01856 12.7436 2.01856 12.5296 2.10056 12.3406C3.12156 9.97664 4.55956 8.01964 6.25956 6.68264C9.72556 3.93964 14.3396 3.93064 17.8406 6.70264C18.1656 6.95964 18.2206 7.43164 17.9636 7.75664C17.7056 8.07964 17.2356 8.13664 16.9096 7.87864C13.9436 5.53064 10.1226 5.53864 7.18856 7.86064C5.75256 8.99064 4.51956 10.6366 3.60956 12.6386C4.51056 14.6286 5.73256 16.2646 7.15756 17.3826C7.48356 17.6386 7.53956 18.1106 7.28356 18.4356C7.13556 18.6236 6.91556 18.7226 6.69356 18.7226Z" fill="#130F26"/>
</g>
<mask id="mask1_247_2159" style="mask-type:luminance" maskUnits="userSpaceOnUse" x="8" y="8" width="15" height="13">
<path fill-rule="evenodd" clip-rule="evenodd" d="M8.75659 8.74121H22.0391V20.6894H8.75659V8.74121Z" fill="white"/>
</mask>
<g mask="url(#mask1_247_2159)">
<path fill-rule="evenodd" clip-rule="evenodd" d="M12.0392 20.6894C11.1022 20.6894 10.1702 20.5374 9.27022 20.2384C8.87722 20.1074 8.66422 19.6824 8.79522 19.2894C8.92622 18.8954 9.34922 18.6864 9.74422 18.8144C10.4912 19.0634 11.2632 19.1894 12.0392 19.1894C15.4672 19.1894 18.6002 16.7474 20.4692 12.6364C20.0132 11.6374 19.4822 10.7324 18.8882 9.94242C18.6392 9.61142 18.7052 9.14042 19.0362 8.89142C19.3662 8.64242 19.8372 8.71042 20.0862 9.04042C20.8102 10.0014 21.4462 11.1124 21.9772 12.3384C22.0602 12.5284 22.0602 12.7444 21.9772 12.9334C19.8812 17.7904 16.1662 20.6894 12.0392 20.6894Z" fill="#130F26"/>
</g>
<mask id="mask2_247_2159" style="mask-type:luminance" maskUnits="userSpaceOnUse" x="3" y="4" width="18" height="18">
<path fill-rule="evenodd" clip-rule="evenodd" d="M3.40259 4.00043H20.6761V21.2734H3.40259V4.00043Z" fill="white"/>
</mask>
<g mask="url(#mask2_247_2159)">
<path fill-rule="evenodd" clip-rule="evenodd" d="M4.15234 21.2734C3.96034 21.2734 3.76834 21.2004 3.62234 21.0534C3.32934 20.7604 3.32934 20.2864 3.62234 19.9934L19.3963 4.21944C19.6893 3.92644 20.1633 3.92644 20.4563 4.21944C20.7493 4.51244 20.7493 4.98744 20.4563 5.28044L4.68234 21.0534C4.53634 21.2004 4.34434 21.2734 4.15234 21.2734Z" fill="#130F26"/>
</g>
</svg>
