<svg width="18" height="18" viewBox="0 0 18 18" fill="none" xmlns="http://www.w3.org/2000/svg">
<path d="M8.99996 13.7917C9.34514 13.7917 9.62496 13.5118 9.62496 13.1667V8.16666C9.62496 7.82149 9.34514 7.54166 8.99996 7.54166C8.65478 7.54166 8.37496 7.82149 8.37496 8.16666V13.1667C8.37496 13.5118 8.65478 13.7917 8.99996 13.7917Z" fill="#8E99A5"/>
<path d="M8.99996 4.83333C9.4602 4.83333 9.83329 5.20643 9.83329 5.66666C9.83329 6.1269 9.4602 6.5 8.99996 6.5C8.53972 6.5 8.16663 6.1269 8.16663 5.66666C8.16663 5.20643 8.53972 4.83333 8.99996 4.83333Z" fill="#8E99A5"/>
<path fill-rule="evenodd" clip-rule="evenodd" d="M0.041626 9C0.041626 4.05245 4.05241 0.0416641 8.99996 0.0416641C13.9475 0.0416641 17.9583 4.05245 17.9583 9C17.9583 13.9475 13.9475 17.9583 8.99996 17.9583C4.05241 17.9583 0.041626 13.9475 0.041626 9ZM8.99996 1.29166C4.74276 1.29166 1.29163 4.7428 1.29163 9C1.29163 13.2572 4.74276 16.7083 8.99996 16.7083C13.2572 16.7083 16.7083 13.2572 16.7083 9C16.7083 4.7428 13.2572 1.29166 8.99996 1.29166Z" fill="#8E99A5"/>
</svg>