<svg width="25" height="24" viewBox="0 0 25 24" fill="none" xmlns="http://www.w3.org/2000/svg">
<path fill-rule="evenodd" clip-rule="evenodd" d="M10.5925 5.38114C12.1283 5.05289 13.7308 5.26575 15.1268 5.98346C16.5229 6.70117 17.6262 7.87931 18.2487 9.31716C18.8712 10.755 18.9744 12.3636 18.5408 13.8688C18.1072 15.374 17.1635 16.6828 15.8706 17.5721C14.5776 18.4613 13.0155 18.8761 11.4502 18.7457C9.88494 18.6153 8.41345 17.9478 7.28645 16.857C6.15946 15.7661 5.44668 14.3194 5.26958 12.7632C5.23115 12.4255 4.92542 12.1829 4.58673 12.2212C4.24803 12.2595 4.00462 12.5643 4.04305 12.902C4.25236 14.7411 5.09472 16.4508 6.42663 17.74C7.75854 19.0292 9.49757 19.8181 11.3474 19.9722C13.1973 20.1263 15.0435 19.6361 16.5715 18.5852C18.0995 17.5342 19.2148 15.9875 19.7272 14.2086C20.2397 12.4297 20.1177 10.5286 19.382 8.82937C18.6463 7.1301 17.3424 5.73774 15.6925 4.88954C14.0426 4.04134 12.1488 3.78978 10.3337 4.17771C8.51867 4.56565 6.89467 5.56908 5.73843 7.01703C5.52611 7.28292 5.47176 7.78831 5.73843 8C6.0051 8.21169 6.49181 8.04953 6.70413 7.78364C7.68248 6.55845 9.05664 5.70939 10.5925 5.38114Z" fill="#1FB0EE" stroke="#1FB0EE" stroke-width="0.2" stroke-linecap="round"/>
<path fill-rule="evenodd" clip-rule="evenodd" d="M8.7983 8.61638C8.89251 8.51326 8.948 8.37378 8.94014 8.22274C8.92551 7.92164 8.67043 7.6896 8.36983 7.70369L5.91413 7.81927L5.80835 5.36364C5.79528 5.06299 5.54167 4.82934 5.23999 4.84245C4.9388 4.85503 4.70622 5.10962 4.7188 5.41081L4.84777 8.41379C4.85328 8.55876 4.91765 8.6954 5.02453 8.79305C5.13142 8.89069 5.27331 8.94247 5.41818 8.9349L8.4211 8.79306C8.57116 8.78628 8.70458 8.71897 8.7983 8.61638Z" fill="#1FB0EE" stroke="#1FB0EE" stroke-width="0.2" stroke-linecap="round"/>
</svg>
