<svg width="25" height="24" viewBox="0 0 25 24" fill="none" xmlns="http://www.w3.org/2000/svg">
<path fill-rule="evenodd" clip-rule="evenodd" d="M12.0387 9.6413C10.7087 9.6413 9.62769 10.7233 9.62769 12.0533C9.62769 13.3823 10.7087 14.4633 12.0387 14.4633C13.3687 14.4633 14.4507 13.3823 14.4507 12.0533C14.4507 10.7233 13.3687 9.6413 12.0387 9.6413ZM12.0387 15.9633C9.88169 15.9633 8.12769 14.2093 8.12769 12.0533C8.12769 9.8963 9.88169 8.1413 12.0387 8.1413C14.1957 8.1413 15.9507 9.8963 15.9507 12.0533C15.9507 14.2093 14.1957 15.9633 12.0387 15.9633Z" fill="#130F26"/>
<mask id="mask0_247_16144" style="mask-type:luminance" maskUnits="userSpaceOnUse" x="2" y="4" width="21" height="17">
<path fill-rule="evenodd" clip-rule="evenodd" d="M2.03931 4.0002H22.0392V20.1052H2.03931V4.0002Z" fill="white"/>
</mask>
<g mask="url(#mask0_247_16144)">
<path fill-rule="evenodd" clip-rule="evenodd" d="M3.60906 12.0525C5.46906 16.1615 8.60206 18.6045 12.0391 18.6055C15.4761 18.6045 18.6091 16.1615 20.4691 12.0525C18.6091 7.94451 15.4761 5.50151 12.0391 5.50051C8.60306 5.50151 5.46906 7.94451 3.60906 12.0525ZM12.0411 20.1055H12.0371H12.0361C7.90006 20.1025 4.18606 17.2035 2.10006 12.3485C2.01906 12.1595 2.01906 11.9455 2.10006 11.7565C4.18606 6.90251 7.90106 4.00351 12.0361 4.00051C12.0381 3.99951 12.0381 3.99951 12.0391 4.00051C12.0411 3.99951 12.0411 3.99951 12.0421 4.00051C16.1781 4.00351 19.8921 6.90251 21.9781 11.7565C22.0601 11.9455 22.0601 12.1595 21.9781 12.3485C19.8931 17.2035 16.1781 20.1025 12.0421 20.1055H12.0411Z" fill="#130F26"/>
</g>
</svg>
